# xmcd
#
# Track frame offsets: 
#        150
#        11671
#        23618
#        36041
#        50672
#        64350
#        77720
#        88054
#        100691
#        114455
#        125905
#        138493
#        149073
#        158803
#        170438
#        182267
#        194296
#        207182
#        220152
#        231967
#        244488
#        255094
#
# Disc length: 3554 seconds
#
# Revision: 0
# Processed by: cddbd v1.4PL0 Copyright (c) Steve Scherf et al.
# Submitted via: ExactAudioCopy v0.90b3
#
DISCID=380de016
DTITLE=George Jones - A Picture Of Me and Nothing Ever Hurt Me
DYEAR=1900
DGENRE=Country
TTITLE0=A Picture Of Me (Without You)
TTITLE1=The Man Worth Lovin' You
TTITLE2=She Knows What She's Crying About
TTITLE3=Second Handed Flowers
TTITLE4=That Singing Friend Of Mine
TTITLE5=She Loves Me (Right Out Of My Mind)
TTITLE6=Tomorrow Never Comes
TTITLE7=Another Way To Say Goodbye
TTITLE8=On The Back Row
TTITLE9=Let There Be A Woman
TTITLE10=We Found A Match
TTITLE11=Nothing Ever Hurt Me (Half As Bad As Losing You)
TTITLE12=You're Looking At A Happy Man
TTITLE13=Never Having You
TTITLE14=Made For The Blues
TTITLE15=What's Your Mama's Name
TTITLE16=Mom And Dads Waltz
TTITLE17=You'll Never Grow Old (To Me)
TTITLE18=What My Woman Can't Do
TTITLE19=My Loving Wife
TTITLE20=Love Lives Again
TTITLE21=Wine (You've Used Me Long Enough)
EXTD=
EXTT0=
EXTT1=
EXTT2=
EXTT3=
EXTT4=
EXTT5=
EXTT6=
EXTT7=
EXTT8=
EXTT9=
EXTT10=
EXTT11=
EXTT12=
EXTT13=
EXTT14=
EXTT15=
EXTT16=
EXTT17=
EXTT18=
EXTT19=
EXTT20=
EXTT21=
PLAYORDER=
